<mxfile host="Electron" modified="2023-05-23T17:31:34.748Z" agent="Mozilla/5.0 (Macintosh; Intel Mac OS X 10_15_7) AppleWebKit/537.36 (KHTML, like Gecko) draw.io/21.2.8 Chrome/112.0.5615.165 Electron/24.2.0 Safari/537.36" etag="30e_eqnTbqmpDx1JxqiN" version="21.2.8" type="device">
  <diagram name="Страница 1" id="GRrXaQCJaVrgRpcCac6q">
    <mxGraphModel dx="2370" dy="1852" grid="1" gridSize="10" guides="1" tooltips="1" connect="1" arrows="1" fold="1" page="1" pageScale="1" pageWidth="2339" pageHeight="3300" math="0" shadow="0">
      <root>
        <mxCell id="0" />
        <mxCell id="1" parent="0" />
        <mxCell id="Qn7Ez02rO-qPKhS96xj3-4" value="" style="rounded=1;whiteSpace=wrap;html=1;fillColor=#bac8d3;strokeColor=#23445d;" parent="1" vertex="1">
          <mxGeometry x="960.25" y="380" width="360" height="202" as="geometry" />
        </mxCell>
        <mxCell id="Qn7Ez02rO-qPKhS96xj3-7" value="Сервис" style="text;html=1;strokeColor=none;fillColor=none;align=center;verticalAlign=middle;whiteSpace=wrap;rounded=0;" parent="1" vertex="1">
          <mxGeometry x="1045.25" y="391" width="190" height="30" as="geometry" />
        </mxCell>
        <mxCell id="Qn7Ez02rO-qPKhS96xj3-8" value="Закупка расходников" style="shape=note;size=20;whiteSpace=wrap;html=1;" parent="1" vertex="1">
          <mxGeometry x="1009.75" y="441" width="100" height="100" as="geometry" />
        </mxCell>
        <mxCell id="Qn7Ez02rO-qPKhS96xj3-9" value="Хранение и выдача расходников" style="shape=note;size=20;whiteSpace=wrap;html=1;" parent="1" vertex="1">
          <mxGeometry x="1170.25" y="441" width="100" height="100" as="geometry" />
        </mxCell>
        <mxCell id="Qn7Ez02rO-qPKhS96xj3-13" value="" style="rounded=1;whiteSpace=wrap;html=1;fillColor=#d0cee2;strokeColor=#56517e;" parent="1" vertex="1">
          <mxGeometry x="957.25" y="680" width="362.75" height="200" as="geometry" />
        </mxCell>
        <mxCell id="Qn7Ez02rO-qPKhS96xj3-14" value="Получение оплаты за заказы" style="shape=note;size=20;whiteSpace=wrap;html=1;" parent="1" vertex="1">
          <mxGeometry x="1012.25" y="730" width="100" height="100" as="geometry" />
        </mxCell>
        <mxCell id="Qn7Ez02rO-qPKhS96xj3-15" value="Сервис" style="text;html=1;strokeColor=none;fillColor=none;align=center;verticalAlign=middle;whiteSpace=wrap;rounded=0;" parent="1" vertex="1">
          <mxGeometry x="1045.25" y="690" width="190" height="30" as="geometry" />
        </mxCell>
        <mxCell id="Qn7Ez02rO-qPKhS96xj3-16" style="edgeStyle=orthogonalEdgeStyle;rounded=0;orthogonalLoop=1;jettySize=auto;html=1;exitX=0.5;exitY=0;exitDx=0;exitDy=0;entryX=0.5;entryY=1;entryDx=0;entryDy=0;endArrow=classic;endFill=1;strokeWidth=2;" parent="1" source="Qn7Ez02rO-qPKhS96xj3-17" target="Qn7Ez02rO-qPKhS96xj3-24" edge="1">
          <mxGeometry relative="1" as="geometry" />
        </mxCell>
        <mxCell id="Qn7Ez02rO-qPKhS96xj3-17" value="" style="rounded=1;whiteSpace=wrap;html=1;fillColor=#d5e8d4;strokeColor=#82b366;" parent="1" vertex="1">
          <mxGeometry x="399.5" y="941" width="200" height="200" as="geometry" />
        </mxCell>
        <mxCell id="Qn7Ez02rO-qPKhS96xj3-18" value="Разработка методик отбора лучших воркеров" style="shape=note;size=20;whiteSpace=wrap;html=1;" parent="1" vertex="1">
          <mxGeometry x="449.5" y="991" width="100" height="100" as="geometry" />
        </mxCell>
        <mxCell id="Qn7Ez02rO-qPKhS96xj3-19" value="Сервис" style="text;html=1;strokeColor=none;fillColor=none;align=center;verticalAlign=middle;whiteSpace=wrap;rounded=0;" parent="1" vertex="1">
          <mxGeometry x="404.5" y="951" width="190" height="30" as="geometry" />
        </mxCell>
        <mxCell id="Qn7Ez02rO-qPKhS96xj3-20" value="" style="rounded=1;whiteSpace=wrap;html=1;fillColor=#bac8d3;strokeColor=#23445d;" parent="1" vertex="1">
          <mxGeometry x="680" y="101" width="200" height="200" as="geometry" />
        </mxCell>
        <mxCell id="Qn7Ez02rO-qPKhS96xj3-21" value="Контроль качества услуг" style="shape=note;size=20;whiteSpace=wrap;html=1;" parent="1" vertex="1">
          <mxGeometry x="730" y="161" width="100" height="100" as="geometry" />
        </mxCell>
        <mxCell id="Qn7Ez02rO-qPKhS96xj3-22" value="Сервис" style="text;html=1;strokeColor=none;fillColor=none;align=center;verticalAlign=middle;whiteSpace=wrap;rounded=0;" parent="1" vertex="1">
          <mxGeometry x="685" y="111" width="190" height="30" as="geometry" />
        </mxCell>
        <mxCell id="Qn7Ez02rO-qPKhS96xj3-23" style="edgeStyle=orthogonalEdgeStyle;rounded=0;orthogonalLoop=1;jettySize=auto;html=1;exitX=0.5;exitY=0;exitDx=0;exitDy=0;entryX=0.5;entryY=1;entryDx=0;entryDy=0;endArrow=classic;endFill=1;strokeWidth=2;" parent="1" source="Qn7Ez02rO-qPKhS96xj3-24" target="Qn7Ez02rO-qPKhS96xj3-33" edge="1">
          <mxGeometry relative="1" as="geometry" />
        </mxCell>
        <mxCell id="Qn7Ez02rO-qPKhS96xj3-24" value="" style="rounded=1;whiteSpace=wrap;html=1;fillColor=#D0CEE2;strokeColor=#B5739D;" parent="1" vertex="1">
          <mxGeometry x="400" y="640" width="200" height="200" as="geometry" />
        </mxCell>
        <mxCell id="Qn7Ez02rO-qPKhS96xj3-25" value="Сервис" style="text;html=1;strokeColor=none;fillColor=none;align=center;verticalAlign=middle;whiteSpace=wrap;rounded=0;" parent="1" vertex="1">
          <mxGeometry x="404.5" y="650" width="190" height="30" as="geometry" />
        </mxCell>
        <mxCell id="Qn7Ez02rO-qPKhS96xj3-27" value="Тестирование и выявление характеристик воркеров" style="shape=note;size=20;whiteSpace=wrap;html=1;" parent="1" vertex="1">
          <mxGeometry x="449.5" y="690" width="100" height="100" as="geometry" />
        </mxCell>
        <mxCell id="Qn7Ez02rO-qPKhS96xj3-28" style="edgeStyle=orthogonalEdgeStyle;rounded=0;orthogonalLoop=1;jettySize=auto;html=1;exitX=1;exitY=0.5;exitDx=0;exitDy=0;endArrow=classic;endFill=1;entryX=0;entryY=0.5;entryDx=0;entryDy=0;strokeWidth=2;" parent="1" source="Qn7Ez02rO-qPKhS96xj3-33" target="Qn7Ez02rO-qPKhS96xj3-4" edge="1">
          <mxGeometry relative="1" as="geometry">
            <mxPoint x="810" y="471" as="targetPoint" />
          </mxGeometry>
        </mxCell>
        <mxCell id="Qn7Ez02rO-qPKhS96xj3-29" style="edgeStyle=orthogonalEdgeStyle;rounded=0;orthogonalLoop=1;jettySize=auto;html=1;entryX=0.5;entryY=1;entryDx=0;entryDy=0;endArrow=classic;endFill=1;strokeWidth=2;exitX=1;exitY=0.25;exitDx=0;exitDy=0;" parent="1" source="Qn7Ez02rO-qPKhS96xj3-33" target="Qn7Ez02rO-qPKhS96xj3-20" edge="1">
          <mxGeometry relative="1" as="geometry">
            <mxPoint x="620" y="460" as="sourcePoint" />
            <Array as="points">
              <mxPoint x="780" y="431" />
            </Array>
          </mxGeometry>
        </mxCell>
        <mxCell id="Qn7Ez02rO-qPKhS96xj3-31" style="edgeStyle=orthogonalEdgeStyle;rounded=0;orthogonalLoop=1;jettySize=auto;html=1;exitX=1;exitY=0.75;exitDx=0;exitDy=0;entryX=0;entryY=0.5;entryDx=0;entryDy=0;endArrow=classic;endFill=1;strokeWidth=2;" parent="1" source="Qn7Ez02rO-qPKhS96xj3-33" target="Qn7Ez02rO-qPKhS96xj3-13" edge="1">
          <mxGeometry relative="1" as="geometry">
            <Array as="points">
              <mxPoint x="600" y="530" />
              <mxPoint x="759" y="530" />
              <mxPoint x="759" y="780" />
            </Array>
          </mxGeometry>
        </mxCell>
        <mxCell id="Qn7Ez02rO-qPKhS96xj3-32" style="edgeStyle=orthogonalEdgeStyle;rounded=0;orthogonalLoop=1;jettySize=auto;html=1;exitX=0.5;exitY=0;exitDx=0;exitDy=0;entryX=0.5;entryY=1;entryDx=0;entryDy=0;endArrow=classic;endFill=1;strokeWidth=2;" parent="1" source="Qn7Ez02rO-qPKhS96xj3-33" target="Qn7Ez02rO-qPKhS96xj3-40" edge="1">
          <mxGeometry relative="1" as="geometry" />
        </mxCell>
        <mxCell id="Qn7Ez02rO-qPKhS96xj3-33" value="" style="rounded=1;whiteSpace=wrap;html=1;fillColor=#D0CEE2;strokeColor=#B5739D;" parent="1" vertex="1">
          <mxGeometry x="400" y="381" width="200" height="201" as="geometry" />
        </mxCell>
        <mxCell id="Qn7Ez02rO-qPKhS96xj3-34" value="Биржа услуг и работа с заказами клиентов" style="text;html=1;strokeColor=none;fillColor=none;align=center;verticalAlign=middle;whiteSpace=wrap;rounded=0;" parent="1" vertex="1">
          <mxGeometry x="410" y="393" width="190" height="30" as="geometry" />
        </mxCell>
        <mxCell id="Qn7Ez02rO-qPKhS96xj3-35" value="Прием и обработка заказов" style="shape=note;size=20;whiteSpace=wrap;html=1;" parent="1" vertex="1">
          <mxGeometry x="449.5" y="442" width="100" height="100" as="geometry" />
        </mxCell>
        <mxCell id="Qn7Ez02rO-qPKhS96xj3-36" style="edgeStyle=orthogonalEdgeStyle;rounded=0;orthogonalLoop=1;jettySize=auto;html=1;exitX=0.5;exitY=1;exitDx=0;exitDy=0;entryX=0;entryY=0.5;entryDx=0;entryDy=0;endArrow=none;endFill=0;strokeWidth=2;startArrow=classic;startFill=1;" parent="1" source="Qn7Ez02rO-qPKhS96xj3-37" target="Qn7Ez02rO-qPKhS96xj3-33" edge="1">
          <mxGeometry relative="1" as="geometry" />
        </mxCell>
        <mxCell id="Qn7Ez02rO-qPKhS96xj3-37" value="" style="rounded=1;whiteSpace=wrap;html=1;fillColor=#d0cee2;strokeColor=#56517e;" parent="1" vertex="1">
          <mxGeometry x="120" y="101" width="200" height="200" as="geometry" />
        </mxCell>
        <mxCell id="Qn7Ez02rO-qPKhS96xj3-38" value="Система мотивации сотрудников" style="shape=note;size=20;whiteSpace=wrap;html=1;" parent="1" vertex="1">
          <mxGeometry x="170" y="161" width="100" height="100" as="geometry" />
        </mxCell>
        <mxCell id="Qn7Ez02rO-qPKhS96xj3-39" value="Сервис" style="text;html=1;strokeColor=none;fillColor=none;align=center;verticalAlign=middle;whiteSpace=wrap;rounded=0;" parent="1" vertex="1">
          <mxGeometry x="125" y="111" width="190" height="30" as="geometry" />
        </mxCell>
        <mxCell id="Qn7Ez02rO-qPKhS96xj3-40" value="" style="rounded=1;whiteSpace=wrap;html=1;fillColor=#d5e8d4;strokeColor=#82b366;" parent="1" vertex="1">
          <mxGeometry x="400" y="100" width="200" height="201" as="geometry" />
        </mxCell>
        <mxCell id="Qn7Ez02rO-qPKhS96xj3-41" value="Сервис" style="text;html=1;strokeColor=none;fillColor=none;align=center;verticalAlign=middle;whiteSpace=wrap;rounded=0;" parent="1" vertex="1">
          <mxGeometry x="410" y="112" width="190" height="30" as="geometry" />
        </mxCell>
        <mxCell id="Qn7Ez02rO-qPKhS96xj3-42" value="Матчинг воркеров под заказ" style="shape=note;size=20;whiteSpace=wrap;html=1;" parent="1" vertex="1">
          <mxGeometry x="449.5" y="161" width="100" height="100" as="geometry" />
        </mxCell>
        <mxCell id="Qn7Ez02rO-qPKhS96xj3-48" value="Получение оплаты за заказы" style="shape=note;size=20;whiteSpace=wrap;html=1;" parent="1" vertex="1">
          <mxGeometry x="1170.25" y="730" width="100" height="100" as="geometry" />
        </mxCell>
      </root>
    </mxGraphModel>
  </diagram>
</mxfile>
